<svg width="89" height="39" viewBox="0 0 89 39" fill="none" xmlns="http://www.w3.org/2000/svg">
<path d="M88.9699 30.3855C88.777 25.7137 87.5484 22.0155 85.3041 19.3851C82.8307 16.4864 79.1975 14.9303 74.5055 14.7596C73.4387 14.7208 72.414 14.6867 71.4253 14.6542C56.2106 14.1503 49.9132 13.9419 31.7643 0.780142L30.9084 0L30.1336 0.83733C29.8289 1.02541 27.1499 2.49061 17.7887 2.49061C11.3251 2.49061 5.84236 0.620219 5.78848 0.601619L4.46686 0.142713L4.08374 1.48832C4.04411 1.62755 0.225281 15.2089 0.0104297 30.3857H0V31.7075V33.0293V39.0006H89V33.0293V31.7075V30.3857H88.9699V30.3855ZM71.5883 17.3046C72.4969 17.3347 73.4349 17.3661 74.4094 17.4014C81.9485 17.6757 85.9531 22.0419 86.3276 30.3857H35.4321C36.2778 27.9629 38.7725 23.5037 45.6794 23.5037H46.2876C51.6334 23.5057 57.6984 23.5063 62.5319 22.7061C65.2827 22.2509 67.348 21.5853 68.8455 20.6713C70.5196 19.6494 71.2791 18.4155 71.5883 17.3046ZM6.28302 3.51585C8.4072 4.11243 12.7767 5.13419 17.7885 5.13419C25.7702 5.13419 29.3693 4.11556 30.8995 3.41642C31.68 3.97736 32.4384 4.5131 33.1793 5.02815L29.8466 9.13241L31.8989 10.7987L35.3707 6.5229C35.9932 6.93905 36.6032 7.33972 37.1992 7.72284L33.8742 11.8179L35.9264 13.4842L39.4581 9.13484C40.0707 9.50631 40.6692 9.85884 41.2565 10.1955L37.902 14.3267L39.9542 15.9931L43.6112 11.4895C52.7598 16.2872 59.1808 16.8619 68.7539 17.2081C67.9171 18.5343 65.6905 19.5037 62.1006 20.098C57.4815 20.8625 51.534 20.8625 46.2885 20.8599H45.6798C39.6373 20.8599 36.3442 23.7569 34.6455 26.1874C33.537 27.7734 32.9589 29.3596 32.6719 30.3855H21.1445C20.7961 21.1024 13.523 13.5616 4.35231 12.7903C5.07561 8.53392 5.85053 5.23153 6.28302 3.51585ZM3.93338 15.4088C11.842 15.9755 18.149 22.4198 18.4986 30.3855H2.65331C2.73119 25.0017 3.27336 19.8244 3.93338 15.4088ZM86.3564 36.357H2.64358V33.0291H86.3564V36.357V36.357Z" fill="black"/>
</svg>
